# xmcd CD database file
#
# Track frame offsets:
#	182
#	13507
#	32960
#	54765
#	91782
#	98690
#	116607
#	146755
#	166157
#	190402
#	208272
#	222572
#	262267
#	288337
#
# Disc length: 4024 seconds
#
# Revision: 1
# Processed by: cddbd v1.5.2PL0 Copyright (c) Steve Scherf et al.
# Submitted via: CDex 1.50beta10
#
DISCID=ce0fb60e
DTITLE=Pulaski High School Jazz - Volume I
DYEAR=1996
DGENRE=Jazz
TTITLE0=Ya Gotta Try
TTITLE1=St. James Infirmary
TTITLE2=Sambita
TTITLE3=The Shade of the Cedar Tree
TTITLE4=Jive at Five
TTITLE5=Tribute to Basie
TTITLE6=Hop, Skip and Jump
TTITLE7=Meditation
TTITLE8=Use Your Brain
TTITLE9=Walkin' in the Rain
TTITLE10=In Full Swing
TTITLE11=Looking In
TTITLE12=Song for my Father
TTITLE13=Open Up
EXTD=YEAR: 1996
EXTT0=
EXTT1=
EXTT2=
EXTT3=
EXTT4=
EXTT5=
EXTT6=
EXTT7=
EXTT8=
EXTT9=
EXTT10=
EXTT11=
EXTT12=
EXTT13=
PLAYORDER=
